# xmcd
#
# Track frame offsets:
#	150
#	16928
#	31611
#	47005
#	59088
#	74636
#	89003
#	105947
#	123365
#	138564
#	153170
#	170094
#	187870
#	208595
#	224252
#	241965
#	260191
#	271346
#	282450
#
# Disc length: 3984 seconds
#
# Revision: 2
# Processed by: cddbd v1.5.2PL0 Copyright (c) Steve Scherf et al.
# Submitted via: audiograbber 1.83.01
#
DISCID=1d0f8e13
DTITLE=Various Artist - Hott Country 171
DYEAR=2010
DGENRE=Country
TTITLE0=Keith Urban - I'm In
TTITLE1=Bucky Covington - A Father's Love
TTITLE2=Easton Corbin - Roll With It
TTITLE3=Janedear Girls - Wildflower
TTITLE4=Chris Janson - Til A Woman Comes Along
TTITLE5=Jessie Farrell - Heart Of Gold
TTITLE6=Terri Clark and Johnny Reid - You Tell Me
TTITLE7=Gary Allan - Get Off On The Pain
TTITLE8=Victoria Banks - This Old Halo (When You Can Fly)
TTITLE9=Trailer Choir - Rollin' Through The Sunshine
TTITLE10=Zac Brown Band - Free
TTITLE11=Eli Young Band - Guinevere
TTITLE12=Court Yard Hounds - Ain't No Son
TTITLE13=Jake Owen - Tell Me
TTITLE14=Ridley Bent - I Can't Turn My Back On The Bottle
TTITLE15=Josh Thompson - Way Out Here
TTITLE16=Tyler Dickerson - Tell Your Sister I'm Single
TTITLE17=Corb Lund - Devil's Best Dress
TTITLE18=Johnny Cash - A Boy Named Sue (1969 )
EXTD=May 2010
EXTT0=
EXTT1=
EXTT2=
EXTT3=
EXTT4=
EXTT5=
EXTT6=
EXTT7=
EXTT8=
EXTT9=
EXTT10=
EXTT11=
EXTT12=
EXTT13=
EXTT14=
EXTT15=
EXTT16=
EXTT17=
EXTT18=
PLAYORDER=
